# xmcd
#
# Track frame offsets:
#  150
#  3084
#  25115
#  49246
#  75763
#  96902
#  109566
#  142360
#  156054
#  168816
#  185902
#  221245
#  240213
#  275699
#
# Disc length: 3934 seconds
#
# Revision: 0
# Processed by: cddbd v1.5.1PL2 Copyright (c) Steve Scherf et al.
# Submitted via: Collectorz.com_Music_Collector 6.11
#
DISCID=b30f5c0e
DTITLE=Modern Blues Band - The Reverse Side Of The Blues
DYEAR=2003
DGENRE=Blues
TTITLE0=Intro (Traditional)
TTITLE1=Mustang Sally
TTITLE2=Thrill is Gone
TTITLE3=Got My Mojo Working
TTITLE4=Someday After a While
TTITLE5=Boogie
TTITLE6=Old Love
TTITLE7=I'm Torn Down
TTITLE8=Don't Let Me Be Lonely Tonight
TTITLE9=Nobody Knows You When You're Down and Out
TTITLE10=Stormy Monday Blues
TTITLE11=No More Doggin'
TTITLE12=Wonderful Tonight (Instrumental version)
TTITLE13=It Hurts Me Too
EXTD=
EXTT0=
EXTT1=
EXTT2=
EXTT3=
EXTT4=
EXTT5=
EXTT6=
EXTT7=
EXTT8=
EXTT9=
EXTT10=
EXTT11=
EXTT12=
EXTT13=
PLAYORDER=
